<svg width="56" height="36" viewBox="0 0 56 36" fill="none" xmlns="http://www.w3.org/2000/svg">
<path d="M21.7529 15.8096L20.7911 16.0831L21.7927 19.6053L22.7203 16.0629L21.7529 15.8096ZM25.1221 2.94336L26.0895 3.19668L26.0942 3.17857L26.0983 3.16029L25.1221 2.94336ZM25.5615 1.50293L24.7179 0.966054L24.6998 0.994489L24.6836 1.02408L25.5615 1.50293ZM25.9766 1.08789L25.4977 0.209995L25.4797 0.21983L25.4621 0.230398L25.9766 1.08789ZM29.7119 2.79688L30.6615 3.11041L30.6636 3.10388L29.7119 2.79688ZM19.5068 33.7051L18.5572 33.3915L18.5561 33.3951L19.5068 33.7051ZM18.6279 35.4141L17.8754 34.7556L17.8674 34.7646L17.8597 34.7739L18.6279 35.4141ZM12.1338 35.2432L11.3201 35.8244L11.3439 35.8578L11.3704 35.8891L12.1338 35.2432ZM11.7188 34.5107L10.7824 34.8619L10.7918 34.887L10.8026 34.9116L11.7188 34.5107ZM11.4502 33.7539L12.3989 33.4377L12.3932 33.4205L12.3868 33.4035L11.4502 33.7539ZM0.244141 3.79785L1.18079 3.44747L1.17749 3.43887L0.244141 3.79785ZM0.537109 1.38086L1.14856 2.17214L1.15957 2.16363L1.17035 2.15482L0.537109 1.38086ZM16.5283 1.08789L16.1955 2.03088L16.2277 2.04226L16.2607 2.05141L16.5283 1.08789ZM17.2607 1.47852L16.585 2.21567L16.6024 2.23162L16.6206 2.24674L17.2607 1.47852ZM17.749 2.08887L16.8667 2.55946L16.8735 2.57233L16.8808 2.58501L17.749 2.08887ZM18.0664 2.8457L19.0283 2.57217L19.0258 2.56354L18.0664 2.8457ZM16.2109 3.74902L17.1726 3.47468L17.1703 3.46686L16.2109 3.74902ZM14.0381 2.99219V1.99219H12.7141L13.0762 3.26568L14.0381 2.99219ZM19.7998 23.2559L18.8379 23.5294L19.8332 27.0296L20.7664 23.5123L19.7998 23.2559ZM20.752 19.667L21.7185 19.9234L21.7891 19.6574L21.7136 19.3927L20.752 19.667ZM22.7203 16.0629L26.0895 3.19668L24.1547 2.69004L20.7855 15.5563L22.7203 16.0629ZM26.0983 3.16029C26.1609 2.87852 26.2227 2.62377 26.2836 2.39536L24.3511 1.88003C24.2819 2.1399 24.2135 2.42226 24.1459 2.72643L26.0983 3.16029ZM26.2836 2.39536C26.3329 2.21071 26.3877 2.07659 26.4394 1.98178L24.6836 1.02408C24.54 1.28735 24.4321 1.5764 24.3511 1.88003L26.2836 2.39536ZM26.4052 2.03981C26.4457 1.97612 26.4764 1.95415 26.4911 1.94538L25.4621 0.230398C25.1512 0.41694 24.9052 0.671671 24.7179 0.966054L26.4052 2.03981ZM26.4554 1.96579C26.4443 1.97185 26.452 1.96525 26.4904 1.95729C26.5294 1.94924 26.5921 1.94141 26.6846 1.94141V-0.0585938C26.2927 -0.0585938 25.8738 0.00483845 25.4977 0.209995L26.4554 1.96579ZM26.6846 1.94141H29.1504V-0.0585938H26.6846V1.94141ZM29.1504 1.94141C29.2074 1.94141 29.2338 1.94726 29.2374 1.94817C29.2396 1.94872 29.2164 1.94311 29.1816 1.91994L30.291 0.25584C29.9281 0.0138711 29.5182 -0.0585938 29.1504 -0.0585938V1.94141ZM29.1816 1.91994C29.0963 1.86304 29.0286 1.78102 28.9892 1.69357C28.9541 1.61547 28.9561 1.566 28.9561 1.57617H30.9561C30.9561 1.12416 30.7964 0.592735 30.291 0.25584L29.1816 1.91994ZM28.9561 1.57617C28.9561 1.73271 28.9104 2.02439 28.7602 2.48987L30.6636 3.10388C30.839 2.56025 30.9561 2.03813 30.9561 1.57617H28.9561ZM28.7623 2.48335L18.5573 33.3916L20.4564 34.0186L30.6615 3.1104L28.7623 2.48335ZM18.5561 33.3951C18.3343 34.0753 18.0945 34.5051 17.8754 34.7556L19.3805 36.0726C19.845 35.5417 20.1911 34.8322 20.4576 34.0151L18.5561 33.3951ZM17.8597 34.7739C17.7884 34.8594 17.6105 35 17.0898 35V37C17.969 37 18.8164 36.7499 19.3962 36.0542L17.8597 34.7739ZM17.0898 35H13.6963V37H17.0898V35ZM13.6963 35C13.4476 35 13.3302 34.951 13.2831 34.9228L12.2541 36.6378C12.6952 36.9025 13.1963 37 13.6963 37V35ZM13.2831 34.9228C13.1303 34.8311 13.0035 34.7229 12.8972 34.5972L11.3704 35.8891C11.6222 36.1867 11.9185 36.4364 12.2541 36.6378L13.2831 34.9228ZM12.9475 34.6619C12.8257 34.4913 12.7215 34.3078 12.6349 34.1099L10.8026 34.9116C10.9439 35.2345 11.1164 35.5393 11.3201 35.8244L12.9475 34.6619ZM12.6551 34.1596C12.5614 33.9098 12.4761 33.6692 12.3989 33.4377L10.5015 34.0701C10.5871 34.3269 10.6808 34.5908 10.7824 34.8619L12.6551 34.1596ZM12.3868 33.4035L1.18075 3.44748L-0.692471 4.14822L10.5136 34.1043L12.3868 33.4035ZM1.17749 3.43887C1.04521 3.09497 1 2.8366 1 2.65039H-1C-1 3.14777 -0.882454 3.65438 -0.689205 4.15683L1.17749 3.43887ZM1 2.65039C1 2.30219 1.0978 2.21137 1.14856 2.17214L-0.0743381 0.589574C-0.739727 1.10374 -1 1.85926 -1 2.65039H1ZM1.17035 2.15482C1.38415 1.97989 1.54121 1.94141 1.66016 1.94141V-0.0585938C0.997848 -0.0585938 0.406213 0.195896 -0.0961284 0.606902L1.17035 2.15482ZM1.66016 1.94141H15.5029V-0.0585938H1.66016V1.94141ZM15.5029 1.94141C15.837 1.94141 16.0582 1.98244 16.1955 2.03088L16.8611 0.1449C16.445 -0.0019675 15.9826 -0.0585938 15.5029 -0.0585938V1.94141ZM16.2607 2.05141C16.4242 2.09683 16.5221 2.15797 16.585 2.21567L17.9365 0.741361C17.6088 0.44099 17.2184 0.241709 16.796 0.124373L16.2607 2.05141ZM16.6206 2.24674C16.7082 2.31981 16.7918 2.41911 16.8667 2.55946L18.6314 1.61828C18.4458 1.27034 18.2039 0.962741 17.9009 0.710294L16.6206 2.24674ZM16.8808 2.58501C16.9688 2.73905 17.0455 2.91853 17.107 3.12787L19.0258 2.56354C18.9246 2.21949 18.7897 1.89441 18.6173 1.59273L16.8808 2.58501ZM17.1045 3.11923L20.7911 16.0831L22.7148 15.536L19.0283 2.57218L17.1045 3.11923ZM17.1703 3.46686C17.0453 3.04189 16.8036 2.60354 16.3572 2.31942L15.2834 4.00675C15.2648 3.99488 15.2497 3.98227 15.2383 3.9709C15.2272 3.95973 15.2215 3.9517 15.2202 3.94972C15.2183 3.94685 15.2331 3.96836 15.2516 4.03119L17.1703 3.46686ZM16.3572 2.31942C15.9757 2.07666 15.5468 1.99219 15.1367 1.99219V3.99219C15.28 3.99219 15.3068 4.02165 15.2834 4.00675L16.3572 2.31942ZM15.1367 1.99219H14.0381V3.99219H15.1367V1.99219ZM13.0762 3.26568L18.8379 23.5294L20.7617 22.9824L15 2.71869L13.0762 3.26568ZM20.7664 23.5123L21.7185 19.9234L19.7854 19.4106L18.8332 22.9994L20.7664 23.5123ZM21.7136 19.3927L17.1726 3.47469L15.2493 4.02335L19.7903 19.9413L21.7136 19.3927ZM47.6289 23.207H48.6289V22.207H47.6289V23.207ZM43.4785 23.207V22.207H42.4785V23.207H43.4785ZM43.3809 33.29L42.3909 33.1486L43.3809 33.29ZM42.8926 34.584L43.7246 35.1387L43.7298 35.1309L43.7348 35.123L42.8926 34.584ZM25.9736 35.1455L25.2665 35.8526L25.9736 35.1455ZM25.9736 1.82031L26.6807 2.52742L26.6908 2.51732L26.7006 2.50694L25.9736 1.82031ZM42.0625 1.35645L41.5694 2.22655L41.5817 2.23326L42.0625 1.35645ZM43.1123 2.40625L42.2043 2.82531L42.2142 2.8467L42.2251 2.8676L43.1123 2.40625ZM43.4541 3.72461L42.4547 3.75907L42.4547 3.7603L43.4541 3.72461ZM43.4785 19.6914H42.4785V20.6914H43.4785V19.6914ZM47.6289 19.6914V20.6914H48.6289V19.6914H47.6289ZM51.6572 0.96582L51.5332 1.95819L51.5468 1.9597L51.6572 0.96582ZM52.0234 1.1123L51.3833 1.88053L51.4509 1.93688L51.5273 1.98055L52.0234 1.1123ZM52.2676 1.4541L51.3098 1.74145L51.328 1.80224L51.3538 1.86024L52.2676 1.4541ZM52.3652 19.6914H51.3652V20.6914H52.3652V19.6914ZM52.3652 23.207V22.207H51.3652V23.207H52.3652ZM52.2676 35.5117L51.3391 35.1403L51.3282 35.1676L51.3189 35.1955L52.2676 35.5117ZM52.0234 35.8535L52.5781 36.6856L52.5916 36.6766L52.6047 36.6672L52.0234 35.8535ZM51.6572 35.9756L51.5468 34.9816L51.5332 34.9833L51.6572 35.9756ZM47.7998 35.6338L46.8936 36.0567L46.9049 36.0808L46.9175 36.1044L47.7998 35.6338ZM41.0371 3.23633L40.4232 4.02568L40.452 4.04811L40.4824 4.06838L41.0371 3.23633ZM40.4512 3.04102L40.319 4.03224L40.3517 4.03661L40.3847 4.0388L40.4512 3.04102ZM39.499 2.99219V1.99219H38.499V2.99219H39.499ZM39.499 33.9492H38.499V34.9492H39.499V33.9492ZM40.4512 33.9248L40.5177 34.9226L40.5506 34.9204L40.5833 34.916L40.4512 33.9248ZM41.0371 33.7295L41.5918 34.5615L41.6222 34.5413L41.651 34.5188L41.0371 33.7295ZM41.3301 33.2656L42.3002 33.5082L42.3024 33.4993L42.3045 33.4905L41.3301 33.2656ZM47.6289 22.207H43.4785V24.207H47.6289V22.207ZM42.4785 23.207V32.0449H44.4785V23.207H42.4785ZM42.4785 32.0449C42.4785 32.3627 42.4508 32.7295 42.3909 33.1486L44.3708 33.4315C44.4411 32.9391 44.4785 32.4759 44.4785 32.0449H42.4785ZM42.3909 33.1486C42.347 33.4558 42.2375 33.7524 42.0503 34.0449L43.7348 35.123C44.0685 34.6018 44.2845 34.0357 44.3708 33.4315L42.3909 33.1486ZM42.0605 34.0293C41.9177 34.2436 41.6667 34.4753 41.2383 34.696L42.1542 36.4739C42.8001 36.1412 43.3467 35.7056 43.7246 35.1387L42.0605 34.0293ZM41.2383 34.696C40.9006 34.87 40.3402 35 39.4746 35V37C40.497 37 41.4178 36.8533 42.1542 36.4739L41.2383 34.696ZM39.4746 35H29.0254V37H39.4746V35ZM29.0254 35C28.2955 35 27.7679 34.9303 27.4084 34.8224L26.8337 36.7381C27.4509 36.9232 28.1928 37 29.0254 37V35ZM27.4084 34.8224C27.0322 34.7096 26.8103 34.568 26.6807 34.4384L25.2665 35.8526C25.6903 36.2764 26.2335 36.558 26.8337 36.7381L27.4084 34.8224ZM26.6807 34.4384C26.5508 34.3085 26.4468 34.1321 26.3865 33.8708L24.4377 34.3206C24.5727 34.9056 24.843 35.4291 25.2665 35.8526L26.6807 34.4384ZM26.3865 33.8708C26.3102 33.5401 26.2656 33.1224 26.2656 32.6064H24.2656C24.2656 33.2298 24.3187 33.8049 24.4377 34.3206L26.3865 33.8708ZM26.2656 32.6064V4.35938H24.2656V32.6064H26.2656ZM26.2656 4.35938C26.2656 3.8434 26.3102 3.42569 26.3865 3.09498L24.4377 2.64526C24.3187 3.1609 24.2656 3.73603 24.2656 4.35938H26.2656ZM26.3865 3.09498C26.4468 2.83371 26.5508 2.65732 26.6807 2.52742L25.2665 1.11321C24.843 1.53669 24.5727 2.06017 24.4377 2.64526L26.3865 3.09498ZM26.7006 2.50694C26.8292 2.37086 27.0442 2.22824 27.4084 2.11896L26.8337 0.203307C26.2214 0.386998 25.6715 0.683832 25.2466 1.13369L26.7006 2.50694ZM27.4084 2.11896C27.7679 2.01113 28.2955 1.94141 29.0254 1.94141V-0.0585938C28.1928 -0.0585938 27.4509 0.0181667 26.8337 0.203307L27.4084 2.11896ZM29.0254 1.94141H39.9141V-0.0585938H29.0254V1.94141ZM39.9141 1.94141C40.7892 1.94141 41.3016 2.07467 41.5695 2.22647L42.5555 0.486423C41.8468 0.0848348 40.9269 -0.0585938 39.9141 -0.0585938V1.94141ZM41.5817 2.23326C41.9433 2.43159 42.118 2.63828 42.2043 2.82531L44.0203 1.98719C43.716 1.32787 43.1908 0.834683 42.5433 0.479633L41.5817 2.23326ZM42.2251 2.8676C42.3659 3.13834 42.4434 3.43137 42.4547 3.75907L44.4535 3.69015C44.4323 3.07383 44.2819 2.48796 43.9995 1.9449L42.2251 2.8676ZM42.4547 3.7603C42.4707 4.20605 42.4785 4.61718 42.4785 4.99414H44.4785C44.4785 4.58985 44.4701 4.15463 44.4535 3.68892L42.4547 3.7603ZM42.4785 4.99414V19.6914H44.4785V4.99414H42.4785ZM43.4785 20.6914H47.6289V18.6914H43.4785V20.6914ZM48.6289 19.6914V2.08887H46.6289V19.6914H48.6289ZM48.6289 2.08887C48.6289 1.99885 48.6501 1.91557 48.7061 1.82211L46.9911 0.793121C46.7542 1.18795 46.6289 1.62549 46.6289 2.08887H48.6289ZM48.7061 1.82211C48.687 1.85398 48.6614 1.88443 48.6317 1.90969C48.6026 1.9344 48.5779 1.94701 48.566 1.9521C48.5551 1.95679 48.5582 1.95379 48.5816 1.94975C48.6051 1.9457 48.6445 1.94141 48.7031 1.94141V-0.0585938C48.1138 -0.0585938 47.3967 0.117255 46.9911 0.793121L48.7061 1.82211ZM48.7031 1.94141H51.2422V-0.0585938H48.7031V1.94141ZM51.2422 1.94141C51.3519 1.94141 51.4485 1.94752 51.5332 1.9581L51.7813 -0.0264576C51.6055 -0.0484281 51.4254 -0.0585938 51.2422 -0.0585938V1.94141ZM51.5468 1.9597C51.5412 1.95908 51.5193 1.95593 51.4873 1.94313C51.4542 1.92991 51.4178 1.90932 51.3833 1.88053L52.6636 0.344083C52.3925 0.118122 52.0772 0.00632945 51.7677 -0.0280634L51.5468 1.9597ZM51.5273 1.98055C51.4506 1.93675 51.3937 1.88031 51.3562 1.82782C51.3211 1.77864 51.3104 1.74356 51.3098 1.74145L53.2254 1.16675C53.1254 0.833372 52.916 0.470607 52.5196 0.244062L51.5273 1.98055ZM51.3538 1.86024C51.3406 1.83058 51.3454 1.82921 51.3524 1.87471C51.3591 1.91812 51.3652 1.98755 51.3652 2.08887H53.3652C53.3652 1.75941 53.3304 1.38324 53.1814 1.04796L51.3538 1.86024ZM51.3652 2.08887V19.6914H53.3652V2.08887H51.3652ZM52.3652 20.6914H54.709V18.6914H52.3652V20.6914ZM54.709 20.6914C54.7257 20.6914 54.5546 20.6949 54.3864 20.5267C54.2182 20.3585 54.2217 20.1873 54.2217 20.2041H56.2217C56.2217 19.8791 56.1397 19.4516 55.8006 19.1125C55.4615 18.7733 55.034 18.6914 54.709 18.6914V20.6914ZM54.2217 20.2041V22.6699H56.2217V20.2041H54.2217ZM54.2217 22.6699C54.2217 22.7061 54.2123 22.5477 54.3702 22.3823C54.447 22.3017 54.533 22.254 54.6036 22.2294C54.6368 22.2178 54.6636 22.2123 54.6811 22.2097C54.6986 22.207 54.7084 22.207 54.709 22.207V24.207C55.0462 24.207 55.4798 24.1164 55.8169 23.7632C56.1456 23.4188 56.2217 22.9918 56.2217 22.6699H54.2217ZM54.709 22.207H52.3652V24.207H54.709V22.207ZM51.3652 23.207V34.8525H53.3652V23.207H51.3652ZM51.3652 34.8525C51.3652 34.9532 51.3592 35.027 51.3516 35.0783C51.3439 35.1305 51.3362 35.1475 51.3391 35.1403L53.1961 35.8831C53.3277 35.5539 53.3652 35.1913 53.3652 34.8525H51.3652ZM51.3189 35.1955C51.3228 35.1838 51.3333 35.1578 51.3562 35.1258C51.3796 35.093 51.4094 35.0632 51.4422 35.0398L52.6047 36.6672C52.9083 36.4504 53.1078 36.1533 53.2163 35.8279L51.3189 35.1955ZM51.4687 35.0215C51.5338 34.9781 51.5741 34.9787 51.5468 34.9817L51.7677 36.9695C52.0333 36.94 52.3178 36.8592 52.5781 36.6856L51.4687 35.0215ZM51.5332 34.9833C51.4485 34.9939 51.3519 35 51.2422 35V37C51.4254 37 51.6055 36.9898 51.7813 36.9679L51.5332 34.9833ZM51.2422 35H48.6299V37H51.2422V35ZM48.6299 35C48.5711 35 48.533 34.9957 48.5118 34.992C48.4907 34.9883 48.4921 34.9862 48.5086 34.9935C48.5263 35.0013 48.5582 35.0186 48.5939 35.0507C48.6304 35.0836 48.6606 35.1228 48.6822 35.1632L46.9175 36.1044C47.3031 36.8275 48.0513 37 48.6299 37V35ZM48.706 35.2109C48.6555 35.1028 48.6289 34.9872 48.6289 34.8525H46.6289C46.6289 35.2713 46.7162 35.6765 46.8936 36.0567L48.706 35.2109ZM48.6289 34.8525V23.207H46.6289V34.8525H48.6289ZM42.4033 4.55469C42.4033 4.16295 42.3777 3.79267 42.3045 3.47534L40.3557 3.92505C40.3801 4.0309 40.4033 4.23028 40.4033 4.55469H42.4033ZM42.3045 3.47534C42.2124 3.07623 41.9974 2.67468 41.5918 2.40428L40.4824 4.06838C40.4343 4.03633 40.3979 3.99616 40.3747 3.95953C40.3535 3.92585 40.3519 3.90882 40.3557 3.92505L42.3045 3.47534ZM41.651 2.44698C41.3039 2.17696 40.8985 2.06862 40.5177 2.04323L40.3847 4.0388C40.4372 4.0423 40.4612 4.04961 40.4645 4.05073C40.4663 4.05133 40.4487 4.0455 40.4232 4.02568L41.651 2.44698ZM40.5833 2.04979C40.2777 2.00904 39.9115 1.99219 39.499 1.99219V3.99219C39.8678 3.99219 40.1363 4.00789 40.319 4.03224L40.5833 2.04979ZM38.499 2.99219V33.9492H40.499V2.99219H38.499ZM39.499 34.9492C39.9005 34.9492 40.2424 34.9409 40.5177 34.9226L40.3847 32.927C40.1717 32.9412 39.8788 32.9492 39.499 32.9492V34.9492ZM40.5833 34.916C40.922 34.8709 41.2782 34.7706 41.5918 34.5615L40.4824 32.8974C40.4944 32.8895 40.4917 32.8938 40.4645 32.9029C40.437 32.912 40.3903 32.9241 40.319 32.9336L40.5833 34.916ZM41.651 34.5188C41.9894 34.2557 42.2021 33.9008 42.3002 33.5082L40.3599 33.0231C40.3587 33.0279 40.3613 33.0153 40.3747 32.9941C40.3886 32.9721 40.4064 32.9532 40.4232 32.9401L41.651 34.5188ZM42.3045 33.4905C42.3782 33.1708 42.4033 32.7908 42.4033 32.3867H40.4033C40.4033 32.7314 40.3796 32.9372 40.3557 33.0408L42.3045 33.4905ZM42.4033 32.3867V4.55469H40.4033V32.3867H42.4033Z" fill="url(#paint0_linear_2_3)"/>
<defs>
<linearGradient id="paint0_linear_2_3" x1="48.5" y1="-16" x2="48.5" y2="50" gradientUnits="userSpaceOnUse">
<stop offset="0.234375" stop-color="#0D6E6E"/>
<stop offset="0.692708" stop-color="#FF3D3D" stop-opacity="0.5"/>
<stop offset="1" stop-color="#FF3D3D" stop-opacity="0.25"/>
<stop offset="1" stop-color="#FF3D3D" stop-opacity="0.1"/>
</linearGradient>
</defs>
</svg>
