<svg width="82" height="43" viewBox="0 0 82 43" fill="none" xmlns="http://www.w3.org/2000/svg">
<path d="M10.05 42.95C9.28333 42.95 8.66667 42.8 8.2 42.5C7.73333 42.2333 7.35 41.7333 7.05 41L2.15 28.75C1.85 27.9833 1.58333 27.3333 1.35 26.8C1.15 26.2333 0.983333 25.7 0.85 25.2C0.716667 24.6667 0.616667 24.1167 0.55 23.55C0.516667 22.95 0.5 22.25 0.5 21.45V8.25C0.5 7.81667 0.55 7.45 0.65 7.15C0.783333 6.85 0.966667 6.6 1.2 6.4L7.65 0.949999C7.81667 0.816666 8.03333 0.716665 8.3 0.649997C8.6 0.549998 8.91667 0.499999 9.25 0.499999H17.2C18 0.499999 18.6 0.699998 19 1.1C19.4333 1.46667 19.65 2.03333 19.65 2.8V16.6C19.65 16.9333 19.6833 17.25 19.75 17.55C19.8167 17.85 19.9 18.1667 20 18.5L20.15 18.85V8.25C20.15 7.81667 20.2 7.45 20.3 7.15C20.4333 6.85 20.6167 6.6 20.85 6.4L27.3 0.949999C27.4667 0.816666 27.6833 0.716665 27.95 0.649997C28.25 0.549998 28.5667 0.499999 28.9 0.499999H36.75C37.5833 0.499999 38.1667 0.683332 38.5 1.05C38.8667 1.41667 39.05 2 39.05 2.8V16C39.05 16.8 39.0167 17.5 38.95 18.1C38.9167 18.6667 38.8333 19.2167 38.7 19.75C38.5667 20.25 38.3833 20.7833 38.15 21.35C37.95 21.8833 37.7 22.5333 37.4 23.3L32.5 35.55C32.4 35.85 32.2667 36.1167 32.1 36.35C31.9333 36.5833 31.7667 36.7667 31.6 36.9L25.15 42.25C24.8833 42.4833 24.5667 42.65 24.2 42.75C23.8667 42.8833 23.4833 42.95 23.05 42.95H10.05ZM29.5 37C30.1333 37 30.65 36.8833 31.05 36.65C31.4833 36.4167 31.8167 35.9833 32.05 35.35L36.95 23.1C37.25 22.3667 37.5 21.7333 37.7 21.2C37.9 20.6333 38.0667 20.1 38.2 19.6C38.3333 19.1 38.4167 18.5833 38.45 18.05C38.5167 17.4833 38.55 16.8 38.55 16V2.8C38.55 2.16667 38.4 1.71667 38.1 1.45C37.8333 1.15 37.3833 0.999999 36.75 0.999999H28.9C28.2667 0.999999 27.8 1.15 27.5 1.45C27.2333 1.71667 27.1 2.16667 27.1 2.8V16.55C27.1 16.8833 27.0667 17.2167 27 17.55C26.9333 17.8833 26.8333 18.2333 26.7 18.6L24.35 25.65C24.25 25.9833 24.1333 26.2167 24 26.35C23.8667 26.45 23.6667 26.5 23.4 26.5H22.85C22.5833 26.5 22.3833 26.45 22.25 26.35C22.1167 26.2167 22 25.9833 21.9 25.65L19.55 18.65C19.4167 18.2833 19.3167 17.9333 19.25 17.6C19.1833 17.2667 19.15 16.9333 19.15 16.6V2.8C19.15 2.16667 18.9833 1.71667 18.65 1.45C18.3167 1.15 17.8333 0.999999 17.2 0.999999H9.25C8.61667 0.999999 8.15 1.15 7.85 1.45C7.58333 1.71667 7.45 2.16667 7.45 2.8V16C7.45 16.8 7.46667 17.4833 7.5 18.05C7.56667 18.5833 7.66667 19.1 7.8 19.6C7.93333 20.1 8.1 20.6333 8.3 21.2C8.5 21.7333 8.75 22.3667 9.05 23.1L13.95 35.35C14.1833 35.9833 14.5 36.4167 14.9 36.65C15.3333 36.8833 15.8667 37 16.5 37H29.5ZM13.1 5.5H13.6V16.3C13.6 17.1667 13.6667 18 13.8 18.8C13.9333 19.5667 14.1333 20.2833 14.4 20.95L17.7 28.95C18.0333 29.8167 18.4 30.55 18.8 31.15C19.2333 31.7167 19.9167 32 20.85 32H25.25C26.1833 32 26.85 31.7167 27.25 31.15C27.6833 30.55 28.0667 29.8167 28.4 28.95L31.7 20.95C31.9667 20.2833 32.1667 19.5667 32.3 18.8C32.4333 18 32.5 17.1667 32.5 16.3V5.5H33V16.3C33 17.2333 32.9333 18.1 32.8 18.9C32.7 19.6667 32.5 20.4167 32.2 21.15L28.9 29.15C28.5 30.1167 28.05 30.9167 27.55 31.55C27.05 32.1833 26.2833 32.5 25.25 32.5H20.85C19.8167 32.5 19.05 32.1833 18.55 31.55C18.05 30.9167 17.6 30.1167 17.2 29.15L13.9 21.15C13.6 20.4167 13.3833 19.6667 13.25 18.9C13.15 18.1 13.1 17.2333 13.1 16.3V5.5ZM55.6195 32.5V5.5H56.1195V18.75H75.3195V5.5H75.8195V32.5H75.3195V19.25H56.1195V32.5H55.6195ZM59.7695 37C60.4029 37 60.8529 36.8667 61.1195 36.6C61.4195 36.3 61.5695 35.8333 61.5695 35.2V24.1H69.9195V35.2C69.9195 35.8333 70.0529 36.3 70.3195 36.6C70.6195 36.8667 71.0862 37 71.7195 37H79.4695C80.1029 37 80.5529 36.8667 80.8195 36.6C81.1195 36.3 81.2695 35.8333 81.2695 35.2V2.8C81.2695 2.16667 81.1195 1.71667 80.8195 1.45C80.5529 1.15 80.1029 0.999999 79.4695 0.999999H71.7195C71.0862 0.999999 70.6195 1.15 70.3195 1.45C70.0529 1.71667 69.9195 2.16667 69.9195 2.8V13.65H61.5695V2.8C61.5695 2.16667 61.4195 1.71667 61.1195 1.45C60.8529 1.15 60.4029 0.999999 59.7695 0.999999H52.0195C51.3862 0.999999 50.9195 1.15 50.6195 1.45C50.3529 1.71667 50.2195 2.16667 50.2195 2.8V35.2C50.2195 35.8333 50.3529 36.3 50.6195 36.6C50.9195 36.8667 51.3862 37 52.0195 37H59.7695ZM61.3695 37.05L54.8695 42.45C54.7362 42.5833 54.5195 42.7 54.2195 42.8C53.9529 42.9 53.6529 42.95 53.3195 42.95H45.5695C44.7695 42.95 44.1862 42.7667 43.8195 42.4C43.4529 42.0333 43.2695 41.45 43.2695 40.65V8.25C43.2695 7.81667 43.3195 7.45 43.4195 7.15C43.5529 6.85 43.7362 6.6 43.9695 6.4L50.4195 0.949999C50.5862 0.816666 50.8029 0.716665 51.0695 0.649997C51.3695 0.549998 51.6862 0.499999 52.0195 0.499999H59.7695C60.5695 0.499999 61.1529 0.683332 61.5195 1.05C61.8862 1.41667 62.0695 2 62.0695 2.8V13.15H62.9695V8.25C62.9695 7.81667 63.0195 7.45 63.1195 7.15C63.2529 6.85 63.4362 6.6 63.6695 6.4L70.1195 0.949999C70.2862 0.816666 70.5029 0.716665 70.7695 0.649997C71.0695 0.549998 71.3862 0.499999 71.7195 0.499999H79.4695C80.2695 0.499999 80.8529 0.683332 81.2195 1.05C81.5862 1.41667 81.7695 2 81.7695 2.8V35.2C81.7695 35.6333 81.7029 36 81.5695 36.3C81.4695 36.6 81.3029 36.85 81.0695 37.05L74.5695 42.45C74.4362 42.5833 74.2195 42.7 73.9195 42.8C73.6529 42.9 73.3529 42.95 73.0195 42.95H65.2695C64.4695 42.95 63.8862 42.7667 63.5195 42.4C63.1529 42.0333 62.9695 41.45 62.9695 40.65V30.05H62.0695V35.2C62.0695 35.6333 62.0029 36 61.8695 36.3C61.7695 36.6 61.6029 36.85 61.3695 37.05Z" fill="#0D6E6E"/>
<path d="M8.2 42.5L8.74076 41.6588L8.7188 41.6447L8.69614 41.6318L8.2 42.5ZM7.05 41L6.1215 41.3714L6.12445 41.3786L7.05 41ZM2.15 28.75L1.21873 29.1144L1.22152 29.1214L2.15 28.75ZM1.35 26.8L0.40701 27.1328L0.419183 27.1673L0.433843 27.2008L1.35 26.8ZM0.85 25.2L-0.120142 25.4425L-0.118248 25.4501L-0.116235 25.4577L0.85 25.2ZM0.55 23.55L-0.44846 23.6055L-0.446751 23.6362L-0.443151 23.6668L0.55 23.55ZM0.65 7.15L-0.263812 6.74386L-0.283418 6.78798L-0.298683 6.83377L0.65 7.15ZM1.2 6.4L0.554573 5.63614L0.549206 5.64074L1.2 6.4ZM7.65 0.949999L7.0253 0.169131L7.01483 0.177509L7.00459 0.186164L7.65 0.949999ZM8.3 0.649997L8.54254 1.62014L8.57979 1.61082L8.61622 1.59868L8.3 0.649997ZM19 1.1L18.2929 1.8071L18.3223 1.83652L18.3541 1.86338L19 1.1ZM20 18.5L19.0422 18.7873L19.0585 18.8417L19.0809 18.8939L20 18.5ZM20.15 18.85L19.2309 19.2439L21.15 18.85H20.15ZM20.3 7.15L19.3862 6.74386L19.3666 6.78798L19.3513 6.83377L20.3 7.15ZM20.85 6.4L20.2046 5.63614L20.1992 5.64074L20.85 6.4ZM27.3 0.949999L26.6753 0.169131L26.6648 0.177509L26.6546 0.186164L27.3 0.949999ZM27.95 0.649997L28.1925 1.62014L28.2298 1.61082L28.2662 1.59868L27.95 0.649997ZM38.5 1.05L37.7601 1.72267L37.7761 1.74028L37.7929 1.7571L38.5 1.05ZM38.95 18.1L37.9561 17.9896L37.9533 18.0154L37.9517 18.0413L38.95 18.1ZM38.7 19.75L39.6662 20.0077L39.6682 20.0001L39.6701 19.9925L38.7 19.75ZM38.15 21.35L37.2253 20.9693L37.2193 20.984L37.2137 20.9989L38.15 21.35ZM37.4 23.3L38.3285 23.6714L38.3312 23.6644L37.4 23.3ZM32.5 35.55L31.5715 35.1786L31.5606 35.2059L31.5513 35.2338L32.5 35.55ZM32.1 36.35L32.9137 36.9312L32.9137 36.9312L32.1 36.35ZM31.6 36.9L30.9753 36.1191L30.9684 36.1247L30.9616 36.1303L31.6 36.9ZM25.15 42.25L24.5116 41.4803L24.5014 41.4887L24.4915 41.4974L25.15 42.25ZM24.2 42.75L23.9369 41.7852L23.8817 41.8003L23.8286 41.8215L24.2 42.75ZM31.05 36.65L30.5759 35.7695L30.5609 35.7776L30.5461 35.7862L31.05 36.65ZM32.05 35.35L31.1215 34.9786L31.1164 34.9914L31.1117 35.0043L32.05 35.35ZM36.95 23.1L36.0244 22.7214L36.0215 22.7286L36.95 23.1ZM37.7 21.2L38.6363 21.5511L38.6398 21.542L38.643 21.5328L37.7 21.2ZM38.2 19.6L37.2338 19.3423L37.2338 19.3423L38.2 19.6ZM38.45 18.05L37.4569 17.9332L37.4537 17.9603L37.4519 17.9876L38.45 18.05ZM38.1 1.45L37.3526 2.11436L37.3917 2.15833L37.4356 2.19741L38.1 1.45ZM27.5 1.45L28.2071 2.15711L27.5 1.45ZM27 17.55L26.0194 17.3539L26.0194 17.3539L27 17.55ZM26.7 18.6L25.7602 18.2583L25.7556 18.271L25.7513 18.2838L26.7 18.6ZM24.35 25.65L23.4013 25.3338L23.3965 25.3481L23.3922 25.3626L24.35 25.65ZM24 26.35L24.6 27.15L24.6569 27.1074L24.7071 27.0571L24 26.35ZM22.25 26.35L21.5429 27.0571L21.5931 27.1074L21.65 27.15L22.25 26.35ZM21.9 25.65L22.8578 25.3627L22.8532 25.3471L22.848 25.3317L21.9 25.65ZM19.55 18.65L20.498 18.3317L20.494 18.3199L20.4898 18.3083L19.55 18.65ZM19.25 17.6L20.2306 17.4039L20.2306 17.4039L19.25 17.6ZM18.65 1.45L17.981 2.19329L18.0026 2.21272L18.0253 2.23087L18.65 1.45ZM7.85 1.45L7.14289 0.742892L7.14289 0.742893L7.85 1.45ZM7.5 18.05L6.50173 18.1087L6.50365 18.1415L6.50772 18.174L7.5 18.05ZM7.8 19.6L8.76624 19.3423L8.76624 19.3423L7.8 19.6ZM8.3 21.2L7.35701 21.5328L7.36025 21.542L7.36367 21.5511L8.3 21.2ZM9.05 23.1L9.97851 22.7286L9.97555 22.7214L9.05 23.1ZM13.95 35.35L14.8883 35.0043L14.8836 34.9914L14.8785 34.9786L13.95 35.35ZM14.9 36.65L14.3961 37.5138L14.4109 37.5224L14.4259 37.5305L14.9 36.65ZM13.1 5.5V4.5H12.1V5.5H13.1ZM13.6 5.5H14.6V4.5H13.6V5.5ZM13.8 18.8L12.8136 18.9644L12.8148 18.9713L13.8 18.8ZM14.4 20.95L13.4715 21.3214L13.4756 21.3313L14.4 20.95ZM17.7 28.95L18.6333 28.591L18.629 28.5798L18.6244 28.5687L17.7 28.95ZM18.8 31.15L17.968 31.7047L17.9859 31.7317L18.0056 31.7574L18.8 31.15ZM27.25 31.15L26.4393 30.5645L26.433 30.5733L27.25 31.15ZM28.4 28.95L27.4756 28.5687L27.471 28.5798L27.4667 28.591L28.4 28.95ZM31.7 20.95L32.6245 21.3314L32.6285 21.3214L31.7 20.95ZM32.3 18.8L33.2852 18.9713L33.2864 18.9644L32.3 18.8ZM32.5 5.5V4.5H31.5V5.5H32.5ZM33 5.5H34V4.5H33V5.5ZM32.8 18.9L31.8136 18.7356L31.8107 18.7531L31.8084 18.7707L32.8 18.9ZM32.2 21.15L33.1244 21.5313L33.1255 21.5286L32.2 21.15ZM28.9 29.15L29.824 29.5324L29.8244 29.5313L28.9 29.15ZM18.55 31.55L19.3349 30.9304L19.3349 30.9304L18.55 31.55ZM17.2 29.15L16.2756 29.5313L16.276 29.5324L17.2 29.15ZM13.9 21.15L12.9744 21.5286L12.9756 21.5313L13.9 21.15ZM13.25 18.9L12.2577 19.024L12.2607 19.0478L12.2648 19.0713L13.25 18.9ZM10.05 41.95C9.40448 41.95 8.99554 41.8226 8.74076 41.6588L7.65924 43.3412C8.33779 43.7774 9.16219 43.95 10.05 43.95V41.95ZM8.69614 41.6318C8.49614 41.5175 8.22958 41.2423 7.97555 40.6214L6.12445 41.3786C6.47042 42.2243 6.97052 42.9492 7.70386 43.3682L8.69614 41.6318ZM7.97848 40.6286L3.07848 28.3786L1.22152 29.1214L6.12152 41.3714L7.97848 40.6286ZM3.08124 28.3856C2.77824 27.6113 2.50641 26.9483 2.26616 26.3992L0.433843 27.2008C0.660256 27.7183 0.921761 28.3554 1.21876 29.1144L3.08124 28.3856ZM2.29299 26.4672C2.10037 25.9214 1.94184 25.4133 1.81623 24.9423L-0.116235 25.4577C0.0248301 25.9867 0.199632 26.5452 0.40701 27.1328L2.29299 26.4672ZM1.82014 24.9575C1.69753 24.467 1.60502 23.9591 1.54315 23.4332L-0.443151 23.6668C-0.37169 24.2743 -0.264199 24.8663 -0.120142 25.4425L1.82014 24.9575ZM1.54846 23.4945C1.51642 22.9179 1.5 22.2371 1.5 21.45H-0.5C-0.5 22.2629 -0.483091 22.9821 -0.44846 23.6055L1.54846 23.4945ZM1.5 21.45V8.25H-0.5V21.45H1.5ZM1.5 8.25C1.5 7.88724 1.54265 7.63432 1.59868 7.46623L-0.298683 6.83377C-0.442653 7.26568 -0.5 7.74609 -0.5 8.25H1.5ZM1.56381 7.55614C1.641 7.38247 1.73788 7.25604 1.85079 7.15925L0.549206 5.64074C0.195452 5.94396 -0.0743324 6.31753 -0.263812 6.74386L1.56381 7.55614ZM1.84541 7.16383L8.29541 1.71383L7.00459 0.186164L0.554589 5.63616L1.84541 7.16383ZM8.2747 1.73087C8.30166 1.7093 8.37676 1.66158 8.54254 1.62014L8.05746 -0.320144C7.68991 -0.228255 7.33168 -0.075967 7.0253 0.169131L8.2747 1.73087ZM8.61622 1.59868C8.80885 1.53447 9.0183 1.5 9.25 1.5V-0.500001C8.81503 -0.500001 8.39115 -0.434476 7.98378 -0.298687L8.61622 1.59868ZM9.25 1.5H17.2V-0.500001H9.25V1.5ZM17.2 1.5C17.8459 1.5 18.1466 1.66079 18.2929 1.8071L19.7071 0.39289C19.0534 -0.260788 18.1541 -0.500001 17.2 -0.500001V1.5ZM18.3541 1.86338C18.4912 1.97941 18.65 2.21849 18.65 2.8H20.65C20.65 1.84817 20.3755 0.953923 19.6459 0.336612L18.3541 1.86338ZM18.65 2.8V16.6H20.65V2.8H18.65ZM18.65 16.6C18.65 17.0002 18.69 17.39 18.7738 17.7669L20.7262 17.3331C20.6766 17.11 20.65 16.8665 20.65 16.6H18.65ZM18.7738 17.7669C18.8464 18.0935 18.9361 18.4337 19.0422 18.7873L20.9578 18.2127C20.8639 17.8996 20.787 17.6065 20.7262 17.3331L18.7738 17.7669ZM19.0809 18.8939L19.2309 19.2439L21.0691 18.4561L20.9191 18.1061L19.0809 18.8939ZM21.15 18.85V8.25H19.15V18.85H21.15ZM21.15 8.25C21.15 7.88724 21.1927 7.63432 21.2487 7.46623L19.3513 6.83377C19.2073 7.26568 19.15 7.74609 19.15 8.25H21.15ZM21.2138 7.55614C21.291 7.38247 21.3879 7.25603 21.5008 7.15925L20.1992 5.64074C19.8455 5.94396 19.5757 6.31753 19.3862 6.74386L21.2138 7.55614ZM21.4954 7.16383L27.9454 1.71383L26.6546 0.186164L20.2046 5.63616L21.4954 7.16383ZM27.9247 1.73087C27.9517 1.7093 28.0268 1.66158 28.1925 1.62014L27.7075 -0.320145C27.3399 -0.228255 26.9817 -0.0759673 26.6753 0.169131L27.9247 1.73087ZM28.2662 1.59868C28.4589 1.53447 28.6683 1.5 28.9 1.5V-0.500001C28.465 -0.500001 28.0411 -0.434476 27.6338 -0.298687L28.2662 1.59868ZM28.9 1.5H36.75V-0.500001H28.9V1.5ZM36.75 1.5C37.4852 1.5 37.712 1.66976 37.7601 1.72267L39.2399 0.377325C38.6214 -0.303094 37.6815 -0.500001 36.75 -0.500001V1.5ZM37.7929 1.7571C37.8917 1.85593 38.05 2.12457 38.05 2.8H40.05C40.05 1.87543 39.8416 0.977399 39.2071 0.342891L37.7929 1.7571ZM38.05 2.8V16H40.05V2.8H38.05ZM38.05 16C38.05 16.7742 38.0176 17.4358 37.9561 17.9896L39.9439 18.2104C40.0157 17.5642 40.05 16.8258 40.05 16H38.05ZM37.9517 18.0413C37.9219 18.5479 37.8476 19.0363 37.7299 19.5075L39.6701 19.9925C39.819 19.397 39.9114 18.7854 39.9483 18.1587L37.9517 18.0413ZM37.7338 19.4923C37.6134 19.9437 37.4451 20.4356 37.2253 20.9693L39.0747 21.7307C39.3216 21.1311 39.5199 20.5563 39.6662 20.0077L37.7338 19.4923ZM37.2137 20.9989C37.0159 21.5263 36.7677 22.1716 36.4688 22.9356L38.3312 23.6644C38.6323 22.8951 38.8841 22.2404 39.0863 21.7011L37.2137 20.9989ZM36.4715 22.9286L31.5715 35.1786L33.4285 35.9214L38.3285 23.6714L36.4715 22.9286ZM31.5513 35.2338C31.4796 35.4488 31.3894 35.6244 31.2863 35.7688L32.9137 36.9312C33.144 36.6089 33.3204 36.2512 33.4487 35.8662L31.5513 35.2338ZM31.2863 35.7688C31.156 35.9511 31.0503 36.0592 30.9753 36.1191L32.2247 37.6809C32.4831 37.4742 32.7106 37.2156 32.9137 36.9312L31.2863 35.7688ZM30.9616 36.1303L24.5116 41.4803L25.7884 43.0197L32.2384 37.6697L30.9616 36.1303ZM24.4915 41.4974C24.347 41.6239 24.1682 41.7221 23.9369 41.7852L24.4631 43.7148C24.9651 43.5779 25.4197 43.3428 25.8085 43.0026L24.4915 41.4974ZM23.8286 41.8215C23.6351 41.8989 23.3818 41.95 23.05 41.95V43.95C23.5849 43.95 24.0982 43.8677 24.5714 43.6785L23.8286 41.8215ZM23.05 41.95H10.05V43.95H23.05V41.95ZM29.5 38C30.248 38 30.9548 37.8632 31.5539 37.5138L30.5461 35.7862C30.3452 35.9034 30.0187 36 29.5 36V38ZM31.5241 37.5305C32.2407 37.1446 32.7021 36.4726 32.9883 35.6957L31.1117 35.0043C30.9312 35.4941 30.7259 35.6887 30.5759 35.7695L31.5241 37.5305ZM32.9785 35.7214L37.8785 23.4714L36.0215 22.7286L31.1215 34.9786L32.9785 35.7214ZM37.8756 23.4786C38.178 22.7394 38.4318 22.0964 38.6363 21.5511L36.7637 20.8489C36.5682 21.3702 36.322 21.9939 36.0245 22.7214L37.8756 23.4786ZM38.643 21.5328C38.8504 20.9452 39.0252 20.3867 39.1662 19.8577L37.2338 19.3423C37.1082 19.8133 36.9496 20.3214 36.757 20.8672L38.643 21.5328ZM39.1662 19.8577C39.3172 19.2917 39.4107 18.7095 39.4481 18.1124L37.4519 17.9876C37.4226 18.4571 37.3495 18.9083 37.2338 19.3423L39.1662 19.8577ZM39.4432 18.1668C39.5158 17.5495 39.55 16.8248 39.55 16H37.55C37.55 16.7752 37.5176 17.4172 37.4569 17.9332L39.4432 18.1668ZM39.55 16V2.8H37.55V16H39.55ZM39.55 2.8C39.55 2.04379 39.375 1.24541 38.7644 0.702592L37.4356 2.19741C37.4362 2.19787 37.4413 2.20237 37.45 2.21614C37.4591 2.23062 37.4735 2.2579 37.4888 2.30373C37.5206 2.39906 37.55 2.5571 37.55 2.8H39.55ZM38.8474 0.785634C38.3046 0.174965 37.5062 -1.43051e-06 36.75 -1.43051e-06V2C36.9929 2 37.1509 2.0294 37.2463 2.06118C37.2921 2.07646 37.3194 2.09092 37.3339 2.10001C37.3476 2.10866 37.3521 2.11384 37.3526 2.11436L38.8474 0.785634ZM36.75 -1.43051e-06H28.9V2H36.75V-1.43051e-06ZM28.9 -1.43051e-06C28.1309 -1.43051e-06 27.3555 0.180292 26.7929 0.742892L28.2071 2.15711C28.2445 2.11971 28.4025 2 28.9 2V-1.43051e-06ZM26.7929 0.742892C26.2456 1.29021 26.1 2.07125 26.1 2.8H28.1C28.1 2.5483 28.1271 2.37858 28.1588 2.27159C28.1895 2.1679 28.217 2.14717 28.2071 2.15711L26.7929 0.742892ZM26.1 2.8V16.55H28.1V2.8H26.1ZM26.1 16.55C26.1 16.8162 26.0734 17.0838 26.0194 17.3539L27.9806 17.7461C28.0599 17.3495 28.1 16.9505 28.1 16.55H26.1ZM26.0194 17.3539C25.964 17.6311 25.8788 17.9323 25.7602 18.2583L27.6398 18.9417C27.7879 18.5344 27.9027 18.1356 27.9806 17.7461L26.0194 17.3539ZM25.7513 18.2838L23.4013 25.3338L25.2987 25.9662L27.6487 18.9162L25.7513 18.2838ZM23.3922 25.3626C23.3536 25.4913 23.3189 25.5762 23.2931 25.6278C23.2658 25.6824 23.2606 25.6752 23.2929 25.6429L24.7071 27.0571C25.0193 26.7449 25.1942 26.3162 25.3078 25.9373L23.3922 25.3626ZM23.4 25.55C23.4309 25.5268 23.458 25.5123 23.4771 25.5037C23.4959 25.4952 23.5071 25.4925 23.5075 25.4924C23.5078 25.4923 23.4996 25.4943 23.481 25.4963C23.4624 25.4983 23.4358 25.5 23.4 25.5V27.5C23.7628 27.5 24.2173 27.437 24.6 27.15L23.4 25.55ZM23.4 25.5H22.85V27.5H23.4V25.5ZM22.85 25.5C22.8142 25.5 22.7876 25.4983 22.769 25.4963C22.7504 25.4943 22.7422 25.4923 22.7425 25.4924C22.7429 25.4925 22.7541 25.4952 22.7729 25.5037C22.792 25.5123 22.8191 25.5268 22.85 25.55L21.65 27.15C22.0327 27.437 22.4872 27.5 22.85 27.5V25.5ZM22.9571 25.6429C22.9894 25.6752 22.9842 25.6824 22.9569 25.6278C22.9311 25.5762 22.8964 25.4913 22.8578 25.3627L20.9422 25.9373C21.0558 26.3162 21.2307 26.7449 21.5429 27.0571L22.9571 25.6429ZM22.848 25.3317L20.498 18.3317L18.602 18.9683L20.952 25.9683L22.848 25.3317ZM20.4898 18.3083C20.3712 17.9823 20.286 17.6811 20.2306 17.4039L18.2694 17.7961C18.3473 18.1856 18.4621 18.5844 18.6102 18.9917L20.4898 18.3083ZM20.2306 17.4039C20.1766 17.1338 20.15 16.8662 20.15 16.6H18.15C18.15 17.0005 18.1901 17.3995 18.2694 17.7961L20.2306 17.4039ZM20.15 16.6V2.8H18.15V16.6H20.15ZM20.15 2.8C20.15 2.01413 19.9424 1.20332 19.2747 0.66913L18.0253 2.23087C18.0332 2.23717 18.059 2.25841 18.0873 2.33481C18.1186 2.41943 18.15 2.56611 18.15 2.8H20.15ZM19.319 0.706705C18.7385 0.184259 17.9789 -1.43051e-06 17.2 -1.43051e-06V2C17.6877 2 17.8949 2.11574 17.981 2.19329L19.319 0.706705ZM17.2 -1.43051e-06H9.25V2H17.2V-1.43051e-06ZM9.25 -1.43051e-06C8.48085 -1.43051e-06 7.70549 0.180291 7.14289 0.742892L8.55711 2.15711C8.59451 2.11971 8.75248 2 9.25 2V-1.43051e-06ZM7.14289 0.742893C6.59557 1.29021 6.45 2.07125 6.45 2.8H8.45C8.45 2.5483 8.4771 2.37858 8.5088 2.27159C8.53952 2.1679 8.56704 2.14717 8.55711 2.1571L7.14289 0.742893ZM6.45 2.8V16H8.45V2.8H6.45ZM6.45 16C6.45 16.8124 6.46688 17.5164 6.50173 18.1087L8.49827 17.9913C8.46645 17.4502 8.45 16.7876 8.45 16H6.45ZM6.50772 18.174C6.57981 18.7507 6.68828 19.3121 6.83377 19.8577L8.76624 19.3423C8.64505 18.8879 8.55353 18.4159 8.49228 17.926L6.50772 18.174ZM6.83377 19.8577C6.97483 20.3867 7.14963 20.9452 7.35701 21.5328L9.24299 20.8672C9.05037 20.3214 8.89184 19.8133 8.76624 19.3423L6.83377 19.8577ZM7.36367 21.5511C7.56817 22.0964 7.82204 22.7394 8.12445 23.4786L9.97555 22.7214C9.67796 21.9939 9.43183 21.3702 9.23633 20.8489L7.36367 21.5511ZM8.12152 23.4714L13.0215 35.7214L14.8785 34.9786L9.97848 22.7286L8.12152 23.4714ZM13.0117 35.6957C13.2895 36.45 13.7215 37.1202 14.3961 37.5138L15.4039 35.7862C15.2785 35.7131 15.0771 35.5167 14.8883 35.0043L13.0117 35.6957ZM14.4259 37.5305C15.0408 37.8616 15.7474 38 16.5 38V36C15.986 36 15.6259 35.9051 15.3741 35.7695L14.4259 37.5305ZM16.5 38H29.5V36H16.5V38ZM13.1 6.5H13.6V4.5H13.1V6.5ZM12.6 5.5V16.3H14.6V5.5H12.6ZM12.6 16.3C12.6 17.218 12.6706 18.1065 12.8136 18.9644L14.7864 18.6356C14.6627 17.8935 14.6 17.1153 14.6 16.3H12.6ZM12.8148 18.9713C12.959 19.8008 13.177 20.5851 13.4715 21.3214L15.3285 20.5786C15.0897 19.9816 14.9076 19.3325 14.7852 18.6287L12.8148 18.9713ZM13.4756 21.3313L16.7756 29.3313L18.6244 28.5687L15.3244 20.5687L13.4756 21.3313ZM16.7667 29.309C17.1193 30.2259 17.5174 31.0288 17.968 31.7047L19.6321 30.5953C19.2826 30.0712 18.9474 29.4075 18.6333 28.591L16.7667 29.309ZM18.0056 31.7574C18.6837 32.6442 19.7097 33 20.85 33V31C20.1236 31 19.783 30.7892 19.5944 30.5426L18.0056 31.7574ZM20.85 33H25.25V31H20.85V33ZM25.25 33C26.3855 33 27.4185 32.6453 28.067 31.7267L26.433 30.5733C26.2815 30.788 25.9811 31 25.25 31V33ZM28.0607 31.7355C28.5554 31.0505 28.9765 30.2367 29.3333 29.309L27.4667 28.591C27.1568 29.3967 26.8113 30.0495 26.4393 30.5645L28.0607 31.7355ZM29.3244 29.3313L32.6244 21.3313L30.7756 20.5687L27.4756 28.5687L29.3244 29.3313ZM32.6285 21.3214C32.923 20.5851 33.141 19.8008 33.2852 18.9713L31.3148 18.6287C31.1924 19.3325 31.0103 19.9816 30.7715 20.5786L32.6285 21.3214ZM33.2864 18.9644C33.4294 18.1065 33.5 17.218 33.5 16.3H31.5C31.5 17.1153 31.4373 17.8935 31.3136 18.6356L33.2864 18.9644ZM33.5 16.3V5.5H31.5V16.3H33.5ZM32.5 6.5H33V4.5H32.5V6.5ZM32 5.5V16.3H34V5.5H32ZM32 16.3C32 17.1863 31.9367 17.9973 31.8136 18.7356L33.7864 19.0644C33.93 18.2027 34 17.2804 34 16.3H32ZM31.8084 18.7707C31.7198 19.4496 31.5426 20.1159 31.2745 20.7714L33.1255 21.5286C33.4574 20.7174 33.6802 19.8837 33.7916 19.0293L31.8084 18.7707ZM31.2756 20.7687L27.9756 28.7687L29.8244 29.5313L33.1244 21.5313L31.2756 20.7687ZM27.976 28.7676C27.6014 29.6729 27.194 30.387 26.7651 30.9304L28.3349 32.1696C28.906 31.4463 29.3986 30.5604 29.824 29.5324L27.976 28.7676ZM26.7651 30.9304C26.506 31.2585 26.0709 31.5 25.25 31.5V33.5C26.4958 33.5 27.594 33.1081 28.3349 32.1696L26.7651 30.9304ZM25.25 31.5H20.85V33.5H25.25V31.5ZM20.85 31.5C20.0291 31.5 19.594 31.2585 19.3349 30.9304L17.7651 32.1696C18.506 33.1081 19.6042 33.5 20.85 33.5V31.5ZM19.3349 30.9304C18.906 30.387 18.4986 29.6729 18.124 28.7676L16.276 29.5324C16.7014 30.5604 17.194 31.4463 17.7651 32.1696L19.3349 30.9304ZM18.1244 28.7687L14.8244 20.7687L12.9756 21.5313L16.2756 29.5313L18.1244 28.7687ZM14.8255 20.7714C14.5524 20.1036 14.356 19.423 14.2352 18.7287L12.2648 19.0713C12.4107 19.9103 12.6476 20.7298 12.9745 21.5286L14.8255 20.7714ZM14.2423 18.776C14.1481 18.0229 14.1 17.1982 14.1 16.3H12.1C12.1 17.2685 12.1519 18.1771 12.2577 19.024L14.2423 18.776ZM14.1 16.3V5.5H12.1V16.3H14.1ZM55.6195 32.5H54.6195V33.5H55.6195V32.5ZM55.6195 5.5V4.5H54.6195V5.5H55.6195ZM56.1195 5.5H57.1195V4.5H56.1195V5.5ZM56.1195 18.75H55.1195V19.75H56.1195V18.75ZM75.3195 18.75V19.75H76.3195V18.75H75.3195ZM75.3195 5.5V4.5H74.3195V5.5H75.3195ZM75.8195 5.5H76.8195V4.5H75.8195V5.5ZM75.8195 32.5V33.5H76.8195V32.5H75.8195ZM75.3195 32.5H74.3195V33.5H75.3195V32.5ZM75.3195 19.25H76.3195V18.25H75.3195V19.25ZM56.1195 19.25V18.25H55.1195V19.25H56.1195ZM56.1195 32.5V33.5H57.1195V32.5H56.1195ZM61.1195 36.6L60.4124 35.8929L60.4124 35.8929L61.1195 36.6ZM61.5695 24.1V23.1H60.5695V24.1H61.5695ZM69.9195 24.1H70.9195V23.1H69.9195V24.1ZM70.3195 36.6L69.5721 37.2644L69.6112 37.3083L69.6552 37.3474L70.3195 36.6ZM80.8195 36.6L81.5266 37.3071L81.5266 37.3071L80.8195 36.6ZM80.8195 1.45L80.0721 2.11436L80.1112 2.15833L80.1552 2.19741L80.8195 1.45ZM70.3195 1.45L71.0266 2.15711L70.3195 1.45ZM69.9195 13.65V14.65H70.9195V13.65H69.9195ZM61.5695 13.65H60.5695V14.65H61.5695V13.65ZM61.1195 1.45L60.3721 2.11436L60.4112 2.15833L60.4552 2.19741L61.1195 1.45ZM50.6195 1.45L49.9124 0.742892L49.9124 0.742893L50.6195 1.45ZM50.6195 36.6L49.8721 37.2644L49.9112 37.3083L49.9552 37.3474L50.6195 36.6ZM61.3695 37.05L62.0086 37.8192L62.0145 37.8143L62.0203 37.8093L61.3695 37.05ZM54.8695 42.45L54.2305 41.6808L54.195 41.7103L54.1624 41.7429L54.8695 42.45ZM54.2195 42.8L53.9033 41.8513L53.8857 41.8572L53.8684 41.8637L54.2195 42.8ZM43.8195 42.4L43.1124 43.1071L43.8195 42.4ZM43.4195 7.15L42.5057 6.74386L42.4861 6.78798L42.4708 6.83377L43.4195 7.15ZM43.9695 6.4L43.3241 5.63614L43.3187 5.64074L43.9695 6.4ZM50.4195 0.949999L49.7948 0.169131L49.7844 0.177509L49.7741 0.186164L50.4195 0.949999ZM51.0695 0.649997L51.3121 1.62014L51.3493 1.61082L51.3858 1.59868L51.0695 0.649997ZM61.5195 1.05L62.2266 0.342892L62.2266 0.34289L61.5195 1.05ZM62.0695 13.15H61.0695V14.15H62.0695V13.15ZM62.9695 13.15V14.15H63.9695V13.15H62.9695ZM63.1195 7.15L62.2057 6.74386L62.1861 6.78798L62.1709 6.83377L63.1195 7.15ZM63.6695 6.4L63.0241 5.63614L63.0187 5.64074L63.6695 6.4ZM70.1195 0.949999L69.4948 0.169131L69.4844 0.177509L69.4741 0.186164L70.1195 0.949999ZM70.7695 0.649997L71.0121 1.62014L71.0493 1.61083L71.0858 1.59868L70.7695 0.649997ZM81.5695 36.3L80.6557 35.8939L80.6361 35.938L80.6209 35.9838L81.5695 36.3ZM81.0695 37.05L81.7086 37.8192L81.7145 37.8143L81.7203 37.8093L81.0695 37.05ZM74.5695 42.45L73.9305 41.6808L73.895 41.7103L73.8624 41.7429L74.5695 42.45ZM73.9195 42.8L73.6033 41.8513L73.5857 41.8572L73.5684 41.8637L73.9195 42.8ZM62.9695 30.05H63.9695V29.05H62.9695V30.05ZM62.0695 30.05V29.05H61.0695V30.05H62.0695ZM61.8695 36.3L60.9557 35.8939L60.9361 35.938L60.9208 35.9838L61.8695 36.3ZM56.6195 32.5V5.5H54.6195V32.5H56.6195ZM55.6195 6.5H56.1195V4.5H55.6195V6.5ZM55.1195 5.5V18.75H57.1195V5.5H55.1195ZM56.1195 19.75H75.3195V17.75H56.1195V19.75ZM76.3195 18.75V5.5H74.3195V18.75H76.3195ZM75.3195 6.5H75.8195V4.5H75.3195V6.5ZM74.8195 5.5V32.5H76.8195V5.5H74.8195ZM75.8195 31.5H75.3195V33.5H75.8195V31.5ZM76.3195 32.5V19.25H74.3195V32.5H76.3195ZM75.3195 18.25H56.1195V20.25H75.3195V18.25ZM55.1195 19.25V32.5H57.1195V19.25H55.1195ZM56.1195 31.5H55.6195V33.5H56.1195V31.5ZM59.7695 38C60.4983 38 61.2793 37.8544 61.8266 37.3071L60.4124 35.8929C60.4224 35.883 60.4016 35.9105 60.2979 35.9412C60.191 35.9729 60.0212 36 59.7695 36V38ZM61.8266 37.3071C62.3892 36.7445 62.5695 35.9691 62.5695 35.2H60.5695C60.5695 35.6975 60.4498 35.8555 60.4124 35.8929L61.8266 37.3071ZM62.5695 35.2V24.1H60.5695V35.2H62.5695ZM61.5695 25.1H69.9195V23.1H61.5695V25.1ZM68.9195 24.1V35.2H70.9195V24.1H68.9195ZM68.9195 35.2C68.9195 35.9436 69.0713 36.7009 69.5721 37.2644L71.0669 35.9356C71.0345 35.8991 70.9195 35.7231 70.9195 35.2H68.9195ZM69.6552 37.3474C70.2186 37.8483 70.976 38 71.7195 38V36C71.1964 36 71.0204 35.8851 70.9839 35.8526L69.6552 37.3474ZM71.7195 38H79.4695V36H71.7195V38ZM79.4695 38C80.1983 38 80.9793 37.8544 81.5266 37.3071L80.1124 35.8929C80.1224 35.883 80.1016 35.9105 79.9979 35.9412C79.891 35.9729 79.7212 36 79.4695 36V38ZM81.5266 37.3071C82.0892 36.7445 82.2695 35.9691 82.2695 35.2H80.2695C80.2695 35.6975 80.1498 35.8555 80.1124 35.8929L81.5266 37.3071ZM82.2695 35.2V2.8H80.2695V35.2H82.2695ZM82.2695 2.8C82.2695 2.04379 82.0946 1.24541 81.4839 0.70259L80.1552 2.19741C80.1557 2.19787 80.1609 2.20237 80.1695 2.21614C80.1786 2.23062 80.1931 2.2579 80.2084 2.30373C80.2401 2.39906 80.2695 2.5571 80.2695 2.8H82.2695ZM81.5669 0.785634C81.0241 0.174965 80.2257 -1.43051e-06 79.4695 -1.43051e-06V2C79.7124 2 79.8705 2.0294 79.9658 2.06118C80.0116 2.07646 80.0389 2.09092 80.0534 2.10001C80.0672 2.10866 80.0717 2.11384 80.0721 2.11436L81.5669 0.785634ZM79.4695 -1.43051e-06H71.7195V2H79.4695V-1.43051e-06ZM71.7195 -1.43051e-06C70.9504 -1.43051e-06 70.175 0.180292 69.6124 0.742892L71.0266 2.15711C71.064 2.11971 71.222 2 71.7195 2V-1.43051e-06ZM69.6124 0.742892C69.0651 1.29021 68.9195 2.07125 68.9195 2.8H70.9195C70.9195 2.5483 70.9466 2.37858 70.9783 2.27159C71.0091 2.1679 71.0366 2.14717 71.0266 2.15711L69.6124 0.742892ZM68.9195 2.8V13.65H70.9195V2.8H68.9195ZM69.9195 12.65H61.5695V14.65H69.9195V12.65ZM62.5695 13.65V2.8H60.5695V13.65H62.5695ZM62.5695 2.8C62.5695 2.04379 62.3946 1.24541 61.7839 0.70259L60.4552 2.19741C60.4557 2.19787 60.4609 2.20237 60.4695 2.21614C60.4786 2.23062 60.4931 2.2579 60.5083 2.30373C60.5401 2.39906 60.5695 2.5571 60.5695 2.8H62.5695ZM61.8669 0.785636C61.3241 0.174964 60.5257 -1.43051e-06 59.7695 -1.43051e-06V2C60.0124 2 60.1705 2.0294 60.2658 2.06118C60.3116 2.07646 60.3389 2.09092 60.3534 2.10001C60.3672 2.10866 60.3717 2.11384 60.3721 2.11436L61.8669 0.785636ZM59.7695 -1.43051e-06H52.0195V2H59.7695V-1.43051e-06ZM52.0195 -1.43051e-06C51.2504 -1.43051e-06 50.475 0.180291 49.9124 0.742892L51.3266 2.15711C51.364 2.11971 51.522 2 52.0195 2V-1.43051e-06ZM49.9124 0.742893C49.3651 1.29021 49.2195 2.07125 49.2195 2.8H51.2195C51.2195 2.5483 51.2466 2.37858 51.2783 2.27159C51.3091 2.1679 51.3366 2.14717 51.3266 2.1571L49.9124 0.742893ZM49.2195 2.8V35.2H51.2195V2.8H49.2195ZM49.2195 35.2C49.2195 35.9436 49.3713 36.7009 49.8721 37.2644L51.3669 35.9356C51.3345 35.8991 51.2195 35.7231 51.2195 35.2H49.2195ZM49.9552 37.3474C50.5186 37.8483 51.276 38 52.0195 38V36C51.4964 36 51.3204 35.8851 51.2839 35.8526L49.9552 37.3474ZM52.0195 38H59.7695V36H52.0195V38ZM60.7305 36.2808L54.2305 41.6808L55.5086 43.2192L62.0086 37.8192L60.7305 36.2808ZM54.1624 41.7429C54.1819 41.7235 54.1801 41.7316 54.1329 41.757C54.0871 41.7817 54.0133 41.8146 53.9033 41.8513L54.5358 43.7487C54.8958 43.6287 55.2831 43.4507 55.5766 43.1571L54.1624 41.7429ZM53.8684 41.8637C53.7314 41.9151 53.553 41.95 53.3195 41.95V43.95C53.7527 43.95 54.1744 43.8849 54.5707 43.7363L53.8684 41.8637ZM53.3195 41.95H45.5695V43.95H53.3195V41.95ZM45.5695 41.95C44.8941 41.95 44.6255 41.7917 44.5266 41.6929L43.1124 43.1071C43.7469 43.7416 44.645 43.95 45.5695 43.95V41.95ZM44.5266 41.6929C44.4278 41.5941 44.2695 41.3254 44.2695 40.65H42.2695C42.2695 41.5746 42.4779 42.4726 43.1124 43.1071L44.5266 41.6929ZM44.2695 40.65V8.25H42.2695V40.65H44.2695ZM44.2695 8.25C44.2695 7.88724 44.3122 7.63432 44.3682 7.46623L42.4708 6.83377C42.3269 7.26568 42.2695 7.74609 42.2695 8.25H44.2695ZM44.3333 7.55614C44.4105 7.38247 44.5074 7.25604 44.6203 7.15925L43.3187 5.64074C42.965 5.94396 42.6952 6.31753 42.5057 6.74386L44.3333 7.55614ZM44.6149 7.16383L51.0649 1.71383L49.7741 0.186164L43.3241 5.63616L44.6149 7.16383ZM51.0442 1.73087C51.0712 1.7093 51.1463 1.66158 51.3121 1.62014L50.827 -0.320144C50.4594 -0.228255 50.1012 -0.075967 49.7948 0.169131L51.0442 1.73087ZM51.3858 1.59868C51.5784 1.53447 51.7878 1.5 52.0195 1.5V-0.500001C51.5846 -0.500001 51.1607 -0.434476 50.7533 -0.298687L51.3858 1.59868ZM52.0195 1.5H59.7695V-0.500001H52.0195V1.5ZM59.7695 1.5C60.445 1.5 60.7136 1.65828 60.8124 1.75711L62.2266 0.34289C61.5921 -0.291616 60.6941 -0.500001 59.7695 -0.500001V1.5ZM60.8124 1.7571C60.9113 1.85593 61.0695 2.12457 61.0695 2.8H63.0695C63.0695 1.87543 62.8611 0.9774 62.2266 0.342892L60.8124 1.7571ZM61.0695 2.8V13.15H63.0695V2.8H61.0695ZM62.0695 14.15H62.9695V12.15H62.0695V14.15ZM63.9695 13.15V8.25H61.9695V13.15H63.9695ZM63.9695 8.25C63.9695 7.88724 64.0122 7.63432 64.0682 7.46623L62.1709 6.83377C62.0269 7.26568 61.9695 7.74609 61.9695 8.25H63.9695ZM64.0333 7.55614C64.1105 7.38247 64.2074 7.25603 64.3203 7.15925L63.0187 5.64074C62.665 5.94396 62.3952 6.31753 62.2057 6.74386L64.0333 7.55614ZM64.3149 7.16383L70.7649 1.71383L69.4741 0.186164L63.0241 5.63616L64.3149 7.16383ZM70.7442 1.73087C70.7712 1.7093 70.8463 1.66158 71.0121 1.62014L70.527 -0.320145C70.1594 -0.228255 69.8012 -0.0759673 69.4948 0.169131L70.7442 1.73087ZM71.0858 1.59868C71.2784 1.53447 71.4878 1.5 71.7195 1.5V-0.500001C71.2846 -0.500001 70.8607 -0.434475 70.4533 -0.298687L71.0858 1.59868ZM71.7195 1.5H79.4695V-0.500001H71.7195V1.5ZM79.4695 1.5C80.145 1.5 80.4136 1.65828 80.5124 1.7571L81.9266 0.342891C81.2921 -0.291616 80.3941 -0.500001 79.4695 -0.500001V1.5ZM80.5124 1.7571C80.6113 1.85593 80.7695 2.12457 80.7695 2.8H82.7695C82.7695 1.87543 82.5611 0.977399 81.9266 0.342891L80.5124 1.7571ZM80.7695 2.8V35.2H82.7695V2.8H80.7695ZM80.7695 35.2C80.7695 35.536 80.7172 35.7556 80.6557 35.8939L82.4833 36.7061C82.6886 36.2444 82.7695 35.7306 82.7695 35.2H80.7695ZM80.6209 35.9838C80.5764 36.1171 80.5103 36.2122 80.4187 36.2907L81.7203 37.8093C82.0954 37.4878 82.3626 37.0829 82.5182 36.6162L80.6209 35.9838ZM80.4305 36.2808L73.9305 41.6808L75.2086 43.2192L81.7086 37.8192L80.4305 36.2808ZM73.8624 41.7429C73.8819 41.7235 73.8801 41.7316 73.8329 41.757C73.7871 41.7817 73.7133 41.8146 73.6033 41.8513L74.2358 43.7487C74.5958 43.6287 74.9831 43.4507 75.2766 43.1571L73.8624 41.7429ZM73.5684 41.8637C73.4314 41.9151 73.253 41.95 73.0195 41.95V43.95C73.4527 43.95 73.8744 43.8849 74.2707 43.7363L73.5684 41.8637ZM73.0195 41.95H65.2695V43.95H73.0195V41.95ZM65.2695 41.95C64.5941 41.95 64.3255 41.7917 64.2266 41.6929L62.8124 43.1071C63.4469 43.7416 64.345 43.95 65.2695 43.95V41.95ZM64.2266 41.6929C64.1278 41.5941 63.9695 41.3254 63.9695 40.65H61.9695C61.9695 41.5746 62.1779 42.4726 62.8124 43.1071L64.2266 41.6929ZM63.9695 40.65V30.05H61.9695V40.65H63.9695ZM62.9695 29.05H62.0695V31.05H62.9695V29.05ZM61.0695 30.05V35.2H63.0695V30.05H61.0695ZM61.0695 35.2C61.0695 35.536 61.0172 35.7556 60.9557 35.8939L62.7833 36.7061C62.9886 36.2444 63.0695 35.7306 63.0695 35.2H61.0695ZM60.9208 35.9838C60.8764 36.1171 60.8103 36.2122 60.7187 36.2907L62.0203 37.8093C62.3954 37.4878 62.6626 37.0829 62.8182 36.6162L60.9208 35.9838Z" fill="url(#paint0_linear_2_2)"/>
<defs>
<linearGradient id="paint0_linear_2_2" x1="47.5" y1="-11" x2="47.5" y2="49" gradientUnits="userSpaceOnUse">
<stop offset="0.234375" stop-color="#0D6E6E"/>
<stop offset="0.692708" stop-color="#FF3D3D" stop-opacity="0.5"/>
<stop offset="1" stop-color="#FF3D3D" stop-opacity="0.25"/>
<stop offset="1" stop-color="#FF3D3D" stop-opacity="0.1"/>
</linearGradient>
</defs>
</svg>
